PathFileType	4	(X/Y/Z)	C:/Users/beibeiliu/ov580/test_trc/User1\sequence.34_training_dense_left.trc
DataRate	CameraRate	NumFrames	NumMarkers	Units	OrigDataRate	OrigDataStartFrame	OrigNumFrames
120	120	11	19	mm	120	147	234
Frame#	Time	ThumbCMC			ThumbMCP			ThumbIP			ThumbTip			IndexMCP			IndexPIP			IndexTip			MiddleMCP			MiddlePIP			MiddleTip			RingMCP			RingPIP			RingTip			PinkyMCP			PinkyPIP			PinkyTip			BackHand1			BackHand2			BackHand3	
		X0	Y0	Z0	X1	Y1	Z1	X2	Y2	Z2	X3	Y3	Z3	X4	Y4	Z4	X5	Y5	Z5	X6	Y6	Z6	X7	Y7	Z7	X8	Y8	Z8	X9	Y9	Z9	X10	Y10	Z10	X11	Y11	Z11	X12	Y12	Z12	X13	Y13	Z13	X14	Y14	Z14	X15	Y15	Z15	X16	Y16	Z16	X17	Y17	Z17	X18	Y18	Z18	
146	1.21667	-214.357	-41.0267	51.3676	-211.015	-18.4288	24.1215	-216.052	-3.41042	1.36418	-209.153	5.31598	-21.0785	-209.164	-78.6611	-24.2086	-208.301	-76.9027	-51.3856	-194.483	-61.2091	-80.7406	-187.06	-92.2769	-25.9875	-178.441	-88.627	-58.0433	-168.337	-69.0442	-84.7354	-157.918	-82.9068	-24.2746	-145.867	-53.8448	-41.8138	-144.756	-29.9402	-25.1264	-133.932	-69.7501	-3.13684	-136.191	-41.8714	-8.91277	-154.285	-26.5967	16.0319	-169.897	-91.7718	37.992	-171.089	-92.1501	70.8211	-202.838	-83.0844	51.1327	
147	1.225	-215.267	-38.8922	50.03	-212.901	-13.9385	26.0051	-210.013	-5.20382	0.60927	-209.123	10.7312	-20.9637	-209.605	-73.6619	-23.8374	-202.66	-72.4598	-52.9463	-190.135	-58.7006	-76.7989	-180.363	-89.093	-27.518	-175.503	-84.5854	-57.0367	-163.348	-66.0395	-82.6813	-153.347	-80.6047	-20.1514	-144.353	-52.1724	-39.6396	-140.595	-24.3684	-19.8271	-130.358	-69.197	-1.29189	-134.436	-38.0634	-4.46197	-151.046	-24.3669	19.9878	-167.53	-92.2259	35.8363	-174.177	-89.3732	74.6761	-205.943	-77.6736	50.4015	
148	1.23333	-217.6	-36.7618	52.6256	-211.607	-12.9235	25.3857	-209.504	-1.12198	2.7943	-206.332	16.2907	-17.7544	-203.154	-69.4703	-23.5702	-194.047	-67.6704	-53.045	-178.701	-51.9663	-77.2745	-180.232	-83.0827	-27.657	-170.37	-76.7985	-58.7584	-152.454	-57.6675	-82.0495	-148.457	-76.0038	-20.181	-138.844	-48.4681	-36.9959	-140.303	-19.1798	-18.1565	-130.196	-66.4806	1.46514	-131.42	-35.8717	-2.4152	-148.291	-21.5074	22.2308	-167.911	-90.0432	35.3	-177.758	-89.502	74.4725	-204.553	-77.968	47.7955	
149	1.24167	-215.443	-37.035	52.1639	-212.923	-8.30369	30.6185	-209.352	5.32097	2.79089	-201.936	19.4706	-17.0998	-197.193	-63.7643	-29.301	-186.2	-60.9148	-52.577	-171.979	-40.4957	-76.6759	-175.024	-76.2966	-27.0293	-161.258	-70.2646	-56.6973	-144.601	-44.7671	-81.3975	-148.47	-70.3623	-19.5088	-132.385	-42.2912	-33.2083	-130.179	-17.3306	-15.587	-128.565	-64.355	6.04868	-123.225	-35.3746	1.42186	-143.141	-18.6597	24.3898	-166.482	-89.6397	35.8617	-174.035	-90.4353	72.2706	-206.487	-75.9151	46.2525	
150	1.25	-214.892	-36.2146	49.2226	-209.809	-6.48667	28.2831	-207.526	8.88684	9.72489	-200.137	26.2655	-9.17533	-191.918	-57.6707	-26.285	-181.948	-49.7176	-55.9371	-160.948	-33.6366	-71.3857	-164.895	-71.6738	-28.6213	-149.183	-59.3165	-56.1365	-135.226	-38.4754	-71.9638	-144.108	-64.6848	-19.2673	-126.636	-37.1554	-28.0127	-126.427	-11.7383	-9.22151	-122.234	-61.5131	9.10967	-121.698	-30.9569	8.45755	-141.119	-12.4556	28.8922	-168.89	-86.6267	38.857	-177.25	-89.078	70.4564	-205.901	-75.1437	44.6049	
151	1.25833	-217.41	-30.5012	47.2562	-205.39	-5.53409	30.3426	-201.995	14.7108	7.91411	-190.043	28.7397	-6.29144	-186.769	-51.3581	-26.0719	-172.507	-42.7608	-52.5906	-150.88	-23.6288	-67.2609	-160.005	-66.3886	-24.9246	-142.697	-54.1616	-52.5904	-123.455	-28.3184	-66.8691	-135.888	-61.4191	-15.7241	-120.359	-33.0891	-22.3125	-118.229	-9.72871	-4.85863	-121.779	-57.8299	11.6831	-116.182	-29.702	14.4272	-133.966	-11.6656	31.666	-165.871	-87.7016	35.1373	-178.033	-90.4586	68.9718	-200.704	-72.9866	39.8214	
152	1.26667	-213.923	-26.3923	46.6338	-203.155	0.903318	35.2097	-196.056	19.9417	14.2538	-184.497	36.1817	-0.179274	-181.707	-43.0858	-29.4989	-166.271	-33.368	-53.439	-144.089	-18.5876	-64.0635	-155.768	-62.0272	-27.0658	-138.58	-48.3568	-51.2522	-114.92	-25.9126	-60.64	-135.284	-60.201	-12.0578	-114.502	-34.4213	-18.7688	-111.918	-7.28735	4.10215	-116.961	-59.8107	16.6841	-115.349	-30.1597	17.6871	-132.336	-12.6462	35.8359	-168.38	-83.9626	36.8983	-185.127	-87.9971	66.1744	-202.548	-68.4466	40.29	
153	1.275	-209.422	-23.7722	46.2886	-198.904	6.81449	33.4999	-185.673	21.57	14.627	-175.439	39.6612	4.20734	-174.911	-42.1803	-26.4951	-157.239	-29.9458	-54.4841	-131.634	-14.4568	-61.5299	-153.171	-58.3212	-31.0465	-131.466	-47.5788	-49.4905	-109.586	-23.2494	-59.2569	-129.965	-62.6593	-9.1048	-107.89	-33.0324	-15.814	-107.057	-10.4656	3.06812	-119.032	-59.953	16.5473	-109.803	-31.3296	22.9849	-126.123	-13.2495	38.8157	-166.065	-83.5188	32.446	-185.377	-87.7387	66.6042	-203.131	-65.5759	39.0747	
154	1.28333	-206.131	-19.9639	44.8919	-192.335	11.7026	31.7327	-177.835	28.7831	12.908	-162.793	39.6924	3.4299	-171.843	-37.6463	-32.8516	-149.92	-31.4615	-51.7001	-126.831	-16.7409	-59.0041	-149.495	-59.9111	-28.1513	-129.506	-46.9282	-50.052	-101.964	-24.5219	-58.1126	-132.607	-61.0502	-10.551	-103.784	-36.1625	-12.5639	-101.177	-14.043	8.00313	-117.322	-65.5847	18.322	-109.012	-35.2694	20.7168	-120.203	-17.5915	38.8525	-171.161	-81.2214	32.3572	-187.793	-85.1002	65.6747	-202.096	-59.0857	34.4365	
155	1.29167	-205.091	-15.3476	47.2187	-183.265	10.1008	32.0649	-169.958	29.0165	16.6489	-153.15	44.4903	3.30263	-172.078	-33.7865	-29.9428	-150.029	-27.8053	-54.0057	-122.712	-15.7586	-60.499	-151.58	-58.8394	-29.2793	-126.055	-45.8418	-51.516	-99.2696	-31.2427	-56.5061	-132.167	-61.9591	-12.2058	-103.043	-42.9687	-14.1627	-98.2291	-18.3152	8.33768	-117.897	-65.4261	15.3207	-105.195	-41.9638	22.5381	-115.542	-19.1488	39.1834	-175.087	-79.9447	30.3685	-194.037	-82.7299	63.0948	-203.657	-58.6886	36.4988	
156	1.3	-200.175	-10.5935	44.5274	-178.698	11.8123	33.9065	-162.112	30.9496	17.1344	-144.837	45.7029	9.10316	-166.396	-36.6648	-31.3964	-146.671	-32.0642	-52.0023	-119.962	-20.8412	-59.5613	-150.192	-61.1967	-31.4088	-127.183	-52.4447	-50.5447	-95.6968	-37.5691	-56.7174	-129.066	-67.9897	-12.9845	-104.202	-44.5285	-15.5356	-95.1972	-24.9535	9.23698	-124.076	-71.5852	15.5904	-106.474	-49.1762	19.4094	-109.492	-24.3471	39.7891	-175.709	-79.0458	29.3497	-195.124	-78.6012	59.966	-201.394	-54.2343	32.6575	
